<svg xmlns="http://www.w3.org/2000/svg" width="135" height="48" fill="none" id="coinbase">
  <path fill="#0052FF" d="M27.116 16.7c-4.88 0-8.694 3.705-8.694 8.665S22.139 34 27.116 34s8.759-3.737 8.759-8.665c0-4.897-3.717-8.634-8.759-8.634m.033 13.724c-2.78 0-4.816-2.158-4.816-5.057 0-2.932 2.004-5.09 4.783-5.09 2.812 0 4.848 2.19 4.848 5.09s-2.036 5.057-4.815 5.057m9.792-9.954h2.424v13.208h3.878V17.022h-6.302zm-28.28-.194c2.037 0 3.653 1.256 4.267 3.125h4.105c-.744-3.994-4.04-6.7-8.339-6.7C3.814 16.7 0 20.404 0 25.366 0 30.327 3.717 34 8.694 34c4.202 0 7.563-2.706 8.307-6.733h-4.074c-.581 1.868-2.197 3.157-4.234 3.157-2.812 0-4.783-2.158-4.783-5.057.001-2.932 1.94-5.09 4.751-5.09m101.969 3.48-2.844-.419c-1.357-.192-2.327-.644-2.327-1.707 0-1.16 1.261-1.74 2.973-1.74 1.875 0 3.071.806 3.33 2.127h3.749c-.421-3.35-3.007-5.315-6.981-5.315-4.105 0-6.82 2.094-6.82 5.057 0 2.834 1.778 4.478 5.365 4.993l2.844.418c1.39.193 2.166.742 2.166 1.772 0 1.321-1.357 1.869-3.232 1.869-2.295 0-3.588-.934-3.782-2.352h-3.814c.357 3.254 2.909 5.541 7.563 5.541 4.235 0 7.046-1.933 7.046-5.251 0-2.964-2.036-4.51-5.236-4.993M41.304 10.16c-1.422 0-2.489 1.03-2.489 2.448s1.066 2.447 2.49 2.447c1.421 0 2.489-1.03 2.489-2.447s-1.068-2.448-2.49-2.448M98.22 22.725c0-3.608-2.198-6.023-6.852-6.023-4.395 0-6.852 2.223-7.337 5.638h3.846c.194-1.321 1.229-2.416 3.427-2.416 1.972 0 2.941.87 2.941 1.933 0 1.385-1.778 1.739-3.976 1.965-2.973.321-6.657 1.352-6.657 5.218 0 2.996 2.23 4.928 5.785 4.928 2.78 0 4.525-1.16 5.398-2.996.13 1.643 1.358 2.706 3.071 2.706h2.262v-3.446h-1.907zm-3.814 4.188c0 2.223-1.94 3.866-4.3 3.866-1.454 0-2.682-.612-2.682-1.9 0-1.643 1.972-2.094 3.782-2.287 1.745-.16 2.715-.547 3.2-1.289zM73.818 16.7c-2.166 0-3.975.903-5.268 2.416V10h-3.878v23.678h3.813v-2.19C69.778 33.066 71.621 34 73.818 34c4.654 0 8.178-3.672 8.178-8.633 0-4.962-3.588-8.667-8.178-8.667m-.581 13.724c-2.78 0-4.816-2.158-4.816-5.057s2.068-5.09 4.847-5.09c2.813 0 4.783 2.159 4.783 5.09 0 2.899-2.035 5.057-4.814 5.057M55.395 16.7c-2.52 0-4.17 1.03-5.139 2.48v-2.158H46.41v16.655h3.878v-9.052c0-2.545 1.616-4.349 4.008-4.349 2.23 0 3.619 1.578 3.619 3.866v9.536h3.878v-9.825c.002-4.19-2.163-7.153-6.398-7.153m78.958 8.12c0-4.768-3.49-8.118-8.177-8.118-4.977 0-8.63 3.736-8.63 8.665 0 5.186 3.911 8.633 8.695 8.633 4.04 0 7.207-2.384 8.015-5.766h-4.041c-.582 1.482-2.004 2.32-3.911 2.32-2.489 0-4.364-1.547-4.783-4.253h12.831v-1.482zm-12.606-1.29c.615-2.32 2.36-3.447 4.364-3.447 2.198 0 3.879 1.257 4.266 3.447z"></path>
</svg>
