<?xml version="1.0" encoding="utf-8"?>
<!-- Generator: Adobe Illustrator 28.2.0, SVG Export Plug-In . SVG Version: 6.00 Build 0)  -->
<svg version="1.1" id="Layer_1" xmlns="http://www.w3.org/2000/svg" xmlns:xlink="http://www.w3.org/1999/xlink" x="0px" y="0px"
	 viewBox="0 0 208 48" style="enable-background:new 0 0 208 48;" xml:space="preserve">
<style type="text/css">
	.st0{fill:#18E299;}
	.st1{fill:#0C8C5E;}
	.st2{fill:#FFFFFF;}
</style>
<path class="st0" d="M36.9,19.2V7.8c0-1.2-1-2.2-2.2-2.2H23.4c-1.8,0-3.6,0.4-5.2,1c-1.6,0.7-3.1,1.7-4.4,3l-0.1,0.1
	c-1.7,1.7-2.8,3.8-3.5,6.1c1.1-0.3,2.2-0.4,3.3-0.4c3,0,5.9,0.9,8.3,2.7c2.1,1.6,3.8,3.8,4.7,6.3c0.9,2.6,1,5.4,0.3,8
	c2.3-0.6,4.4-1.8,6.1-3.5l0.1-0.1c1.3-1.3,2.3-2.8,3-4.4C36.6,22.8,36.9,21,36.9,19.2L36.9,19.2z"/>
<path class="st1" d="M9.9,19c0-3.5,1.4-6.8,3.9-9.3l-9.5,9.5c0,0-0.1,0.1-0.1,0.1c-2.3,2.3-3.7,5.4-3.9,8.6c-0.2,3,0.6,6,2.3,8.5
	c0.2,0.2,0.6,0.3,0.8,0.1l5.8-5.8c1.8-1.8,2.4-4.5,1.5-6.9C10.1,22.2,9.9,20.6,9.9,19z"/>
<path class="st1" d="M32.9,28.8c-1.8,1.8-4.1,3-6.6,3.6c-2.5,0.5-5.1,0.4-7.5-0.5c0,0,0,0,0,0c-2.4-0.9-5.1-0.3-6.9,1.5l-5.8,5.8
	c-0.2,0.2-0.2,0.7,0.1,0.8c2.5,1.7,5.5,2.5,8.5,2.3c3.2-0.2,6.3-1.6,8.6-3.9l0.1-0.1L32.9,28.8L32.9,28.8z"/>
<path class="st2" d="M192.5,47h-7.1l5-11.3l-10-22.5h7.2l5.8,14.1c0.2,0.5,0.9,0.5,1.1,0l5.8-14.1h7.2L192.5,47z"/>
<path class="st2" d="M170.9,37V18.9h-4.8v-5.7h4.8v-3.1c0-2.8,0.9-5.1,2.6-6.7S177.4,1,180,1c1.6,0,3,0.2,4.1,0.5v5.8
	c-0.8-0.3-1.7-0.4-2.7-0.4c-1.4,0-2.5,0.3-3.1,1c-0.6,0.6-1,1.6-1,3.1v2.3h6.7v5.7h-6.7V37H170.9z"/>
<path class="st2" d="M160.2,9.3c-1.1,0-2.1-0.4-2.9-1.2c-0.8-0.8-1.2-1.8-1.2-3s0.4-2.1,1.2-2.9c0.8-0.8,1.8-1.2,2.9-1.2
	c1.2,0,2.2,0.4,3,1.2c0.8,0.8,1.2,1.8,1.2,2.9s-0.4,2.1-1.2,3C162.4,8.9,161.4,9.3,160.2,9.3z M157,37V13.2h6.5V37H157z"/>
<path class="st2" d="M145.6,37V1.3h6.5V37H145.6z"/>
<path class="st2" d="M138.3,37.3c-2.7,0-4.9-0.7-6.6-2.2c-1.7-1.5-2.5-3.6-2.5-6.4v-9.8h-4.8v-5.7h4.8V6.6h6.5v6.6h6.7v5.7h-6.7v8.5
	c0,1.5,0.3,2.5,1,3.1c0.6,0.6,1.7,0.9,3.1,0.9c1,0,1.9-0.1,2.7-0.4v5.8C141.3,37.1,139.9,37.3,138.3,37.3z"/>
<path class="st2" d="M99.9,37V13.2h6.5v1.7c0,0.3,0.4,0.4,0.6,0.2c1.5-1.6,3.5-2.5,6.2-2.5c2.9,0,5.1,1,6.7,2.9
	c1.7,1.9,2.5,4.4,2.5,7.5v14h-6.5V24.2c0-1.7-0.4-3.1-1.1-4.1c-0.7-1-1.8-1.5-3.1-1.5c-1.6,0-2.9,0.6-3.9,1.7
	c-1,1.1-1.4,2.8-1.4,5.1V37H99.9z"/>
<path class="st2" d="M91.8,9.3c-1.1,0-2.1-0.4-2.9-1.2c-0.8-0.8-1.2-1.8-1.2-3S88,3,88.8,2.2C89.7,1.4,90.6,1,91.8,1
	c1.2,0,2.2,0.4,3,1.2C95.5,3,96,4,96,5.1s-0.4,2.1-1.2,3C93.9,8.9,92.9,9.3,91.8,9.3z M88.5,37V13.2H95V37H88.5z"/>
<path class="st2" d="M77.4,37V24.3c0-3.8-1.2-5.7-3.7-5.7c-1.4,0-2.6,0.5-3.4,1.6c-0.8,1.1-1.3,2.7-1.3,4.8v12h-6.5V24.3
	c0-3.8-1.2-5.7-3.7-5.7c-1.5,0-2.6,0.6-3.5,1.7c-0.9,1.1-1.3,2.8-1.3,5.1V37h-6.5V13.2h6.5V15c0,0.3,0.4,0.4,0.6,0.2
	c1.4-1.7,3.4-2.5,5.8-2.5c3.1,0,5.5,1.3,7.1,3.9c0.1,0.2,0.4,0.2,0.6,0c0.7-1.1,1.6-2,2.9-2.7c1.4-0.8,2.8-1.2,4.2-1.2
	c2.8,0,5,0.9,6.6,2.8c1.6,1.9,2.3,4.4,2.3,7.7V37H77.4z"/>
</svg>
