<?xml version="1.0" encoding="utf-8"?>
<!-- Generator: Adobe Illustrator 28.2.0, SVG Export Plug-In . SVG Version: 6.00 Build 0)  -->
<svg version="1.1" id="Layer_1" xmlns="http://www.w3.org/2000/svg" xmlns:xlink="http://www.w3.org/1999/xlink" x="0px" y="0px"
	 viewBox="0 0 344.9 81.9" style="enable-background:new 0 0 344.9 81.9;" xml:space="preserve">
<style type="text/css">
	.st0{fill:#FFFFFF;}
	.st1{fill:#0C8C5E;}
	.st2{fill:#18E299;}
</style>
<path class="st0" d="M99.5,15.2h15.1L127.2,46h0.6l12.6-30.8h15.1v49.9h-11.7V34.3h-0.3l-12,30.5h-7.4l-12.3-30.5h-0.3v30.8h-12
	C99.5,65.1,99.5,15.2,99.5,15.2z M160.2,65.1V27.5h12v37.6H160.2z M166.3,23.2c-1.5,0-3.1-0.6-4.3-1.5c-1.2-1.2-1.8-2.5-1.8-4
	s0.6-2.8,1.8-4s2.8-1.5,4.3-1.5s3.1,0.6,4.3,1.5c1.2,1.2,1.8,2.5,1.8,4s-0.6,3.1-1.8,4S167.9,23.2,166.3,23.2z M188.8,43.5v21.3h-12
	V27.5h11.4v6.8h0.3c0.9-2.2,2.2-4,4.3-5.5c2.2-1.2,4.3-1.8,7.1-1.8s4.9,0.6,6.8,1.8c1.8,1.2,3.4,2.8,4.6,4.9s1.5,4.6,1.5,7.4v24
	h-11.7V43.5c0-2.2-0.6-3.7-1.5-4.9s-2.5-1.8-4.3-1.8c-1.2,0-2.5,0.3-3.4,0.9c-0.9,0.6-1.5,1.2-2.2,2.5
	C189.1,41,188.8,42.3,188.8,43.5z M239.1,27.5v8.9h-23.7v-8.9C215.4,27.5,239.1,27.5,239.1,27.5z M220.3,18.6h12v34.8
	c0,0.6,0,1.2,0.3,1.8c0.3,0.3,0.6,0.6,0.9,0.9c0.3,0.3,0.9,0.3,1.5,0.3c0.3,0,0.9,0,1.5,0s0.9-0.3,1.2-0.3l1.8,8.6
	c-0.6,0.3-1.2,0.3-2.5,0.6c-0.9,0.3-2.2,0.3-3.7,0.6c-2.8,0-5.2-0.3-7.1-0.9c-1.8-0.9-3.4-2.2-4.6-3.7c-0.9-1.5-1.5-3.7-1.5-6.5
	V18.6H220.3z M255.1,15.2v49.9h-12V15.2H255.1z M260,65.1V27.5h12v37.6H260z M265.9,23.2c-1.5,0-3.1-0.6-4.3-1.5
	c-1.2-1.2-1.8-2.5-1.8-4s0.6-2.8,1.8-4c1.2-1.2,2.8-1.5,4.3-1.5s3.1,0.6,4.3,1.5c1.2,1.2,1.8,2.5,1.8,4s-0.6,3.1-1.8,4
	S267.7,23.2,265.9,23.2z M297.9,27.5v8.9h-24v-8.9C273.9,27.5,297.9,27.5,297.9,27.5z M279.1,65.1V25.6c0-2.8,0.6-5.2,1.5-7.1
	c1.2-1.8,2.5-3.4,4.6-4.3c1.8-0.9,4.3-1.5,6.8-1.5c1.5,0,3.1,0,4.6,0.3s2.5,0.6,3.4,0.6l-1.8,8.6c-0.3,0-0.9-0.3-1.5-0.3
	s-1.2,0-1.8,0c-1.5,0-2.5,0.3-2.8,0.9c-0.6,0.6-0.9,1.5-0.9,2.5v39.8H279.1z M308.4,79.3c-1.5,0-2.8,0-4-0.3s-2.5-0.6-3.4-0.9
	l2.8-8.6c1.2,0.3,2.2,0.6,3.1,0.6s1.8,0,2.5-0.6c0.6-0.3,1.2-0.9,1.5-1.8l0.6-1.2l-13.3-38.8h12.6l6.8,26.8h0.3l7.1-26.8h12.6
	l-14.2,41c-0.6,2.2-1.5,4-2.8,5.5c-1.2,1.5-2.8,2.8-4.9,3.7C313.6,78.6,311.2,79.3,308.4,79.3z"/>
<g>
	<path class="st1" d="M25.2,32.1c0-7.1,2.8-13.6,7.7-18.5l0,0L14.1,32.4l0,0c0,0,0,0-0.3,0.3c-4.6,4.6-7.4,10.5-7.7,16.9
		c-0.6,6.5,1.5,12.9,5.2,17.9l19.1-19.1l0.3-0.3C26.7,43.8,24.9,38,25.2,32.1z"/>
	<path class="st1" d="M70.8,51.5c-3.7,3.4-8,5.9-12.9,7.1s-10.2,0.6-14.8-0.9c-2.5-0.9-4.9-2.2-7.1-3.7l-0.3,0.3L16.6,73.4
		c5.2,4,11.7,5.9,17.9,5.2c6.5-0.6,12.6-3.1,16.9-7.7l0.3-0.3L70.8,51.5z"/>
	<path class="st2" d="M78.8,32.4V5.6H52c-3.4,0-7.1,0.6-10.2,2.2c-3.4,1.2-6.2,3.4-8.6,5.9L32.9,14c-3.4,3.4-5.5,7.4-6.8,12
		c2.2-0.6,4.3-0.9,6.5-0.9c5.9,0,11.7,1.8,16.3,5.2c4.3,3.1,7.4,7.4,9.2,12.3c1.8,5.2,2.2,10.5,0.6,15.7c4.6-1.2,8.6-3.4,12-6.8
		l0.3-0.3c2.5-2.5,4.6-5.5,5.9-8.6C78.2,39.5,78.8,36.1,78.8,32.4z"/>
</g>
</svg>
